HIERARCHY
ROOT hip
{
  OFFSET -5.27887 80.9882 200.913
  CHANNELS 6 Xposition Yposition Zposition Zrotation Xrotation Yrotation
  JOINT abdomen
  {
    OFFSET 0 20.6881 -0.73152
    CHANNELS 3 Zrotation Xrotation Yrotation
    JOINT chest
    {
      OFFSET 0 11.7043 -0.48768
      CHANNELS 3 Zrotation Xrotation Yrotation
      JOINT neck
      {
        OFFSET 0 22.1894 -2.19456
        CHANNELS 3 Zrotation Xrotation Yrotation
        JOINT head
        {
          OFFSET -0.24384 7.07133 1.2192
          CHANNELS 3 Zrotation Xrotation Yrotation
          JOINT leftEye
          {
            OFFSET 4.14528 8.04674 8.04672
            CHANNELS 3 Zrotation Xrotation Yrotation
            End Site
            {
              OFFSET 1 0 0
            }
          }
          JOINT rightEye
          {
            OFFSET -3.6576 8.04674 8.04672
            CHANNELS 3 Zrotation Xrotation Yrotation
            End Site
            {
              OFFSET 1 0 0
            }
          }
        }
      }
      JOINT rCollar
      {
        OFFSET -2.68224 19.2634 -4.8768
        CHANNELS 3 Zrotation Xrotation Yrotation
        JOINT rShldr
        {
          OFFSET -8.77824 -1.95073 1.46304
          CHANNELS 3 Zrotation Xrotation Yrotation
          JOINT rForeArm
          {
            OFFSET -28.1742 -1.7115 0.48768
            CHANNELS 3 Zrotation Xrotation Yrotation
            JOINT rHand
            {
              OFFSET -22.5879 0.773209 7.07136
              CHANNELS 3 Zrotation Xrotation Yrotation
              JOINT rThumb1
              {
                OFFSET -1.2192 -0.487915 3.41376
                CHANNELS 3 Zrotation Xrotation Yrotation
                JOINT rThumb2
                {
                  OFFSET -3.37035 -0.52449 3.41376
                  CHANNELS 3 Zrotation Xrotation Yrotation
                  End Site
                  {
                    OFFSET -1.78271 -1.18214 1.43049
                  }
                }
              }
              JOINT rIndex1
              {
                OFFSET -7.75947 0.938293 5.60832
                CHANNELS 3 Zrotation Xrotation Yrotation
                JOINT rIndex2
                {
                  OFFSET -2.54057 -0.884171 1.56538
                  CHANNELS 3 Zrotation Xrotation Yrotation
                  End Site
                  {
                    OFFSET -1.62519 -0.234802 1.16502
                  }
                }
              }
              JOINT rMid1
              {
                OFFSET -8.24714 1.18213 3.41376
                CHANNELS 3 Zrotation Xrotation Yrotation
                JOINT rMid2
                {
                  OFFSET -3.10165 -0.590103 1.0647
                  CHANNELS 3 Zrotation Xrotation Yrotation
                  End Site
                  {
                    OFFSET -2.48547 -0.328903 0.83742
                  }
                }
              }
              JOINT rRing1
              {
                OFFSET -8.82822 0.546677 1.51678
                CHANNELS 3 Zrotation Xrotation Yrotation
                JOINT rRing2
                {
                  OFFSET -2.60934 -0.819778 -0.0198488
                  CHANNELS 3 Zrotation Xrotation Yrotation
                  End Site
                  {
                    OFFSET -2.33842 -0.294052 0.168128
                  }
                }
              }
              JOINT rPinky1
              {
                OFFSET -8.27202 -0.0477905 -0.4584
                CHANNELS 3 Zrotation Xrotation Yrotation
                JOINT rPinky2
                {
                  OFFSET -1.82734 -0.647385 -0.700984
                  CHANNELS 3 Zrotation Xrotation Yrotation
                  End Site
                  {
                    OFFSET -1.69225 -0.51767 -0.607171
                  }
                }
              }
            }
          }
        }
      }
      JOINT lCollar
      {
        OFFSET 2.68224 19.2634 -4.8768
        CHANNELS 3 Zrotation Xrotation Yrotation
        JOINT lShldr
        {
          OFFSET 8.77824 -1.95073 1.46304
          CHANNELS 3 Zrotation Xrotation Yrotation
          JOINT lForeArm
          {
            OFFSET 28.1742 -1.7115 0.48768
            CHANNELS 3 Zrotation Xrotation Yrotation
            JOINT lHand
            {
              OFFSET 22.5879 0.773209 7.07136
              CHANNELS 3 Zrotation Xrotation Yrotation
              JOINT lThumb1
              {
                OFFSET 1.2192 -0.487915 3.41376
                CHANNELS 3 Zrotation Xrotation Yrotation
                JOINT lThumb2
                {
                  OFFSET 3.37035 -0.52449 3.41376
                  CHANNELS 3 Zrotation Xrotation Yrotation
                  End Site
                  {
                    OFFSET 1.78271 -1.18214 1.43049
                  }
                }
              }
              JOINT lIndex1
              {
                OFFSET 7.75947 0.938293 5.60832
                CHANNELS 3 Zrotation Xrotation Yrotation
                JOINT lIndex2
                {
                  OFFSET 2.54057 -0.884171 1.56538
                  CHANNELS 3 Zrotation Xrotation Yrotation
                  End Site
                  {
                    OFFSET 1.62519 -0.234802 1.16502
                  }
                }
              }
              JOINT lMid1
              {
                OFFSET 8.24714 1.18213 3.41376
                CHANNELS 3 Zrotation Xrotation Yrotation
                JOINT lMid2
                {
                  OFFSET 3.10165 -0.590103 1.0647
                  CHANNELS 3 Zrotation Xrotation Yrotation
                  End Site
                  {
                    OFFSET 2.48547 -0.328903 0.83742
                  }
                }
              }
              JOINT lRing1
              {
                OFFSET 8.82822 0.546677 1.51678
                CHANNELS 3 Zrotation Xrotation Yrotation
                JOINT lRing2
                {
                  OFFSET 2.60934 -0.819778 -0.0198488
                  CHANNELS 3 Zrotation Xrotation Yrotation
                  End Site
                  {
                    OFFSET 2.33842 -0.294052 0.168128
                  }
                }
              }
              JOINT lPinky1
              {
                OFFSET 8.27202 -0.0477905 -0.4584
                CHANNELS 3 Zrotation Xrotation Yrotation
                JOINT lPinky2
                {
                  OFFSET 1.82734 -0.647385 -0.700984
                  CHANNELS 3 Zrotation Xrotation Yrotation
                  End Site
                  {
                    OFFSET 1.69225 -0.51767 -0.607171
                  }
                }
              }
            }
          }
        }
      }
    }
  }
  JOINT rButtock
  {
    OFFSET -8.77824 4.35084 1.2192
    CHANNELS 3 Zrotation Xrotation Yrotation
    JOINT rThigh
    {
      OFFSET 0 -1.70687 -2.19456
      CHANNELS 3 Zrotation Xrotation Yrotation
      JOINT rShin
      {
        OFFSET 0 -36.8199 0.73152
        CHANNELS 3 Zrotation Xrotation Yrotation
        JOINT rFoot
        {
          OFFSET 0.73152 -45.1104 -5.12064
          CHANNELS 3 Zrotation Xrotation Yrotation
          End Site
          {
            OFFSET -1.1221 -3.69964 12.103
          }
        }
      }
    }
  }
  JOINT lButtock
  {
    OFFSET 8.77824 4.35084 1.2192
    CHANNELS 3 Zrotation Xrotation Yrotation
    JOINT lThigh
    {
      OFFSET 0 -1.70687 -2.19456
      CHANNELS 3 Zrotation Xrotation Yrotation
      JOINT lShin
      {
        OFFSET 0 -36.8199 0.73152
        CHANNELS 3 Zrotation Xrotation Yrotation
        JOINT lFoot
        {
          OFFSET -0.73152 -45.1104 -5.12064
          CHANNELS 3 Zrotation Xrotation Yrotation
          End Site
          {
            OFFSET 1.1221 -3.69964 12.103
          }
        }
      }
    }
  }
}
MOTION
Frames:	8
Frame Time:	0.00833333
2.65895 84.7178 -208.241 0.351628 -0.000724149 -0.00600548 -0.462528 -0.00207379 -0.0132009 -0.127531 -0.00315855 -0.0220952 -3.2436e-015 -7.95139e-016 7.45442e-017 -9.85537e-015 3.18055e-015 2.20527e-016 -0 0 0 -0 0 0 -1.64131e-015 7.76503e-018 2.48481e-016 -3.26441e-014 2.91965e-016 1.59028e-015 -5.89198e-013 1.80695e-013 2.54444e-014 -6.75084e-012 -1.55027e-013 1.27222e-013 -1.59245e-011 5.22407e-014 3.81667e-013 -2.75074e-011 8.5875e-014 6.50423e-013 -1.59191e-011 5.24792e-014 3.75305e-013 7.73091 5.47488 0.417314 -1.5926e-011 5.19822e-014 3.88028e-013 2.90554 0.965183 0.102902 -1.59167e-011 5.25785e-014 3.82462e-013 10.2786 0.731801 0.0259123 -1.59342e-011 5.40694e-014 3.91208e-013 2.22167 -0.733487 -0.20892 -1.73813e-015 6.60027e-018 -1.49089e-016 -3.57563e-014 3.97569e-016 0 -5.91335e-013 -1.7016e-013 2.8625e-014 -6.74417e-012 2.01294e-013 1.65389e-013 -1.59115e-011 6.22368e-014 3.84847e-013 -2.74744e-011 1.01778e-013 6.71097e-013 -1.59171e-011 6.36111e-014 3.84847e-013 -7.73091 5.47488 -0.417314 -1.5912e-011 6.25178e-014 3.84847e-013 -2.90554 0.965183 -0.102902 -1.59203e-011 6.2319e-014 3.80871e-013 -10.2786 0.731801 -0.0259123 -1.59073e-011 6.40087e-014 3.68944e-013 -2.22167 -0.733487 0.20892 -2.03217e-016 0 -3.88251e-019 0.172354 -2.48161 -0.0258952 -0.00786734 -1.0571 -0.0680511 -0.52244 3.53839 0.132385 2.03217e-016 0 3.88251e-019 -0.875859 -4.26242 0.0710585 0.00283244 2.1685 0.0189695 0.527734 2.09369 -0.103298 
2.35176 83.9371 -210.298 0.170105 1.00574 0.179597 -1.28192 0.346646 -0.623276 0.951189 -0.989435 -0.185047 -1.62281 0.492064 -0.0302019 -2.49915 -2.8767 0.109532 -0 0 0 -0 0 0 -9.73646e-015 2.87859e-015 1.81313e-016 22.3756 0.700057 -0.027314 -3.0102 -1.19192 4.87549 0.00998884 2.2286 0.312368 1.11265e-010 -1.35876e-012 -3.61873e-012 1.92096e-010 -2.24741e-012 -7.06948e-012 1.11274e-010 -1.3595e-012 -3.62996e-012 7.73091 5.47488 0.417314 1.11263e-010 -1.35936e-012 -3.61425e-012 2.90554 0.965183 0.102902 1.11273e-010 -1.35863e-012 -3.61937e-012 10.2786 0.731801 0.0259123 1.11257e-010 -1.35601e-012 -3.60926e-012 2.22167 -0.733487 -0.20892 -9.85224e-015 2.87786e-015 -2.20915e-016 -21.575 3.56069 1.55878 4.28444 -1.95938 -6.67855 -0.125776 7.88095 -1.07013 2.3827e-011 1.4057e-010 1.91445e-010 4.56497e-011 2.45576e-010 3.29941e-010 2.38205e-011 1.40569e-010 1.91449e-010 -7.73091 5.47488 -0.417314 2.38273e-011 1.40569e-010 1.91447e-010 -2.90554 0.965183 -0.102902 2.38191e-011 1.40567e-010 1.91444e-010 -10.2786 0.731801 -0.0259123 2.38321e-011 1.4057e-010 1.91435e-010 -2.22167 -0.733487 0.20892 -2.03217e-016 0 -3.88251e-019 -2.30547 -2.6119 -0.685598 -0.00047408 2.7897 0.0271556 -0.610508 -0.0411127 -2.74744 2.03217e-016 0 3.88251e-019 1.2179 -2.80212 -0.565691 0.000823776 3.95991 -0.0234789 0.479094 -1.9548 1.99294 
2.29633 83.9239 -210.306 -0.0314709 2.0694 0.382788 -2.13764 0.714143 -1.2652 2.08317 -2.03623 -0.356547 -3.33661 1.01404 -0.0614284 -5.12771 -5.91267 0.227757 -0 0 0 -0 0 0 -1.88106e-014 6.73698e-015 7.76503e-017 46.0307 1.40714 -0.0658175 -5.96305 -2.41751 10.0208 -0.00608538 4.61027 0.647812 2.55524e-010 -3.39969e-012 -5.08372e-012 4.41199e-010 -5.67133e-012 -1.0505e-011 2.55538e-010 -3.4015e-012 -5.10042e-012 7.73091 5.47488 0.417314 2.55523e-010 -3.40067e-012 -5.08134e-012 2.90554 0.965183 0.102902 2.55532e-010 -3.39978e-012 -5.08596e-012 10.2786 0.731801 0.0259123 2.55518e-010 -3.39591e-012 -5.07438e-012 2.22167 -0.733487 -0.20892 -1.89473e-014 6.73674e-015 -3.32343e-016 -44.5848 7.34492 3.2291 8.30619 -3.93136 -13.7418 0.0733022 16.1976 -2.27011 6.91723e-011 2.99779e-010 4.07114e-010 1.2904e-010 5.23703e-010 7.0159e-010 6.91649e-011 2.99776e-010 4.07122e-010 -7.73091 5.47488 -0.417314 6.91737e-011 2.99777e-010 4.07117e-010 -2.90554 0.965183 -0.102902 6.91653e-011 2.99772e-010 4.07115e-010 -10.2786 0.731801 -0.0259123 6.91785e-011 2.99777e-010 4.0711e-010 -2.22167 -0.733487 0.20892 -2.03217e-016 0 -3.88251e-019 -4.92372 -2.7459 -1.38574 -0.00655678 6.85456 0.128619 -1.0948 -3.80477 -5.80485 2.03217e-016 0 3.88251e-019 3.47024 -1.25724 -1.24443 0.00164236 5.85009 -0.068477 0.750755 -6.21802 4.23127 
2.26654 83.9276 -210.288 -0.212527 3.01855 0.551484 -2.89842 1.04361 -1.8437 3.09178 -2.96188 -0.51155 -4.86687 1.47619 -0.0906324 -7.46414 -8.62998 0.331941 -0 0 0 -0 0 0 -2.59268e-014 8.62023e-015 4.69784e-017 67.1289 2.10017 -0.0819911 -8.42846 -3.47234 14.6508 -0.0433548 6.68501 0.942805 3.65644e-010 -4.18075e-012 -1.16195e-011 6.31304e-010 -6.91398e-012 -2.25093e-011 3.65661e-010 -4.18346e-012 -1.16405e-011 7.73091 5.47488 0.417314 3.65642e-010 -4.18205e-012 -1.16188e-011 2.90554 0.965183 0.102902 3.65651e-010 -4.18105e-012 -1.1623e-011 10.2786 0.731801 0.0259123 3.65639e-010 -4.17618e-012 -1.16102e-011 2.22167 -0.733487 -0.20892 -2.60804e-014 8.62039e-015 -3.64568e-016 -65.314 10.6502 4.74932 11.5086 -5.55934 -20.1226 0.573879 23.6083 -3.47087 1.03304e-010 4.21585e-010 5.73567e-010 1.91898e-010 7.36525e-010 9.8848e-010 1.03296e-010 4.21579e-010 5.73578e-010 -7.73091 5.47488 -0.417314 1.03306e-010 4.21582e-010 5.7357e-010 -2.90554 0.965183 -0.102902 1.03298e-010 4.21576e-010 5.7357e-010 -10.2786 0.731801 -0.0259123 1.03311e-010 4.21582e-010 5.73567e-010 -2.22167 -0.733487 0.20892 -2.03217e-016 0 -3.88251e-019 -7.27013 -2.8713 -2.00544 -0.0244696 10.4832 0.22114 -1.86767 -7.12065 -8.5732 2.03217e-016 0 3.88251e-019 5.50273 0.118011 -1.83677 0.00483094 7.54272 -0.109125 1.27926 -9.99626 6.27748 
2.28859 83.9404 -210.261 -0.327316 3.68156 0.633233 -3.43731 1.27842 -2.2634 3.80382 -3.58479 -0.624739 -5.93932 1.7888 -0.114756 -9.09455 -10.5508 0.39776 -0 0 0 -0 0 0 -2.81481e-014 5.56558e-015 1.98785e-016 81.8324 2.75807 -0.0422553 -10.0898 -4.19608 17.9699 -0.0790081 7.99322 1.13079 3.90414e-010 -1.81212e-012 -3.08323e-011 6.73912e-010 -2.70347e-012 -5.59356e-011 3.90433e-010 -1.8153e-012 -3.08546e-011 7.73091 5.47488 0.417314 3.90412e-010 -1.81361e-012 -3.08323e-011 2.90554 0.965183 0.102902 3.90421e-010 -1.81262e-012 -3.08363e-011 10.2786 0.731801 0.0259123 3.9041e-010 -1.80735e-012 -3.08228e-011 2.22167 -0.733487 -0.20892 -2.83086e-014 5.56597e-015 -1.98785e-016 -79.9133 12.7892 5.82185 13.5821 -6.62212 -24.717 1.13709 28.7865 -4.42877 1.09402e-010 4.49883e-010 6.1698e-010 2.03428e-010 7.86087e-010 1.06347e-009 1.09393e-010 4.49876e-010 6.16993e-010 -7.73091 5.47488 -0.417314 1.09404e-010 4.49879e-010 6.16983e-010 -2.90554 0.965183 -0.102902 1.09396e-010 4.49873e-010 6.16985e-010 -10.2786 0.731801 -0.0259123 1.09409e-010 4.4988e-010 6.16983e-010 -2.22167 -0.733487 0.20892 -2.03217e-016 0 -3.88251e-019 -8.9309 -2.97611 -2.42372 -0.0444795 13.0215 0.287526 -2.59884 -9.39985 -10.5392 2.03217e-016 0 3.88251e-019 6.91522 1.0701 -2.21362 0.00832037 8.7415 -0.138253 1.81423 -12.6172 7.74785 
2.32112 83.9423 -210.252 -0.342758 3.94527 0.594813 -3.67243 1.37947 -2.46359 4.10744 -3.77702 -0.679991 -6.37498 1.88611 -0.136772 -9.75251 -11.3632 0.3981 -0 0 0 -0 0 0 -2.3468e-014 -6.90399e-015 3.77769e-016 87.5792 3.36072 0.0868611 -10.8056 -4.52372 19.4425 -0.0888019 8.22684 1.16477 3.03125e-010 -1.89831e-011 -6.16242e-011 5.22925e-010 -3.2319e-011 -1.08707e-010 3.03142e-010 -1.89862e-011 -6.16431e-011 7.73091 5.47488 0.417314 3.03124e-010 -1.89847e-011 -6.16235e-011 2.90554 0.965183 0.102902 3.03131e-010 -1.89839e-011 -6.16274e-011 10.2786 0.731801 0.0259123 3.03122e-010 -1.89792e-011 -6.16139e-011 2.22167 -0.733487 -0.20892 -2.3616e-014 -6.90363e-015 2.52364e-017 -85.7298 13.3243 6.20408 14.4543 -7.09149 -26.7519 1.41325 30.8093 -4.83916 8.44813e-011 3.48599e-010 4.74978e-010 1.57034e-010 6.09019e-010 8.18816e-010 8.44723e-011 3.48594e-010 4.74988e-010 -7.73091 5.47488 -0.417314 8.44823e-011 3.48596e-010 4.74978e-010 -2.90554 0.965183 -0.102902 8.44767e-011 3.48593e-010 4.74982e-010 -10.2786 0.731801 -0.0259123 8.44872e-011 3.48598e-010 4.7498e-010 -2.22167 -0.733487 0.20892 -2.03217e-016 0 -3.88251e-019 -9.63061 -3.05429 -2.56399 -0.0547475 14.0356 0.314293 -2.92752 -10.29 -11.3122 2.03217e-016 0 3.88251e-019 7.42905 1.42541 -2.28634 0.00965537 9.25387 -0.150936 2.06689 -13.6595 8.33738 
2.34857 83.9346 -210.277 -0.286357 3.9237 0.470366 -3.69232 1.38513 -2.50679 4.12053 -3.66196 -0.6937 -6.35579 1.82992 -0.157036 -9.71793 -11.3836 0.351492 -0 0 0 -0 0 0 -1.38607e-014 -2.59794e-014 5.87036e-016 86.9259 3.92416 0.279469 -10.8898 -4.58938 19.5918 -0.0768668 7.69307 1.08811 1.35441e-010 -4.89705e-011 -1.00981e-010 2.33042e-010 -8.41217e-011 -1.75802e-010 1.35453e-010 -4.8973e-011 -1.00993e-010 7.73091 5.47488 0.417314 1.35439e-010 -4.89722e-011 -1.00978e-010 2.90554 0.965183 0.102902 1.35446e-010 -4.89718e-011 -1.00982e-010 10.2786 0.731801 0.0259123 1.35438e-010 -4.89681e-011 -1.00969e-010 2.22167 -0.733487 -0.20892 -1.39825e-014 -2.59792e-014 3.01283e-016 -85.2333 12.7193 6.08199 14.5606 -7.20165 -26.9461 1.38189 30.5893 -4.7936 3.70135e-011 1.54694e-010 2.01163e-010 6.86004e-011 2.69981e-010 3.46933e-010 3.70046e-011 1.54692e-010 2.01167e-010 -7.73091 5.47488 -0.417314 3.70123e-011 1.54693e-010 2.01158e-010 -2.90554 0.965183 -0.102902 3.70098e-011 1.54694e-010 2.01165e-010 -10.2786 0.731801 -0.0259123 3.70173e-011 1.54696e-010 2.01161e-010 -2.22167 -0.733487 0.20892 -2.03217e-016 0 -3.88251e-019 -9.64289 -3.11347 -2.50544 -0.0549897 13.9609 0.311823 -2.88788 -10.2073 -11.2126 2.03217e-016 0 3.88251e-019 7.29492 1.35495 -2.1415 0.0088289 9.27571 -0.151748 2.04751 -13.5868 8.27524 
2.36834 83.932 -210.301 -0.202137 3.78606 0.308297 -3.62623 1.35518 -2.48241 4.01515 -3.43502 -0.6892 -6.14884 1.72182 -0.168563 -9.39773 -11.0766 0.301347 -0 0 0 -0 0 0 -2.3602e-015 -4.36941e-014 1.17368e-015 83.713 4.48156 0.480099 -10.7229 -4.55115 19.2059 -0.0589987 6.8555 0.96821 -7.62908e-011 -4.57658e-011 -1.53633e-010 -1.3304e-010 -7.84625e-011 -2.65661e-010 -7.62838e-011 -4.57676e-011 -1.53638e-010 7.73091 5.47488 0.417314 -7.62923e-011 -4.57674e-011 -1.53628e-010 2.90554 0.965183 0.102902 -7.62873e-011 -4.57673e-011 -1.53632e-010 10.2786 0.731801 0.0259123 -7.62941e-011 -4.5765e-011 -1.5362e-010 2.22167 -0.733487 -0.20892 -2.45894e-015 -4.36942e-014 9.48498e-016 -82.2301 11.646 5.78257 14.3797 -7.18425 -26.4199 1.23553 29.5609 -4.58217 -3.2641e-011 -7.83883e-011 -1.04321e-010 -5.89436e-011 -1.36942e-010 -1.7905e-010 -3.26497e-011 -7.83876e-011 -1.04322e-010 -7.73091 5.47488 -0.417314 -3.2644e-011 -7.83882e-011 -1.04331e-010 -2.90554 0.965183 -0.102902 -3.26441e-011 -7.83821e-011 -1.04321e-010 -10.2786 0.731801 -0.0259123 -3.26393e-011 -7.83823e-011 -1.04328e-010 -2.22167 -0.733487 0.20892 -2.03217e-016 0 -3.88251e-019 -9.37736 -3.16226 -2.36077 -0.0512426 13.4469 0.297664 -2.70277 -9.73742 -10.7684 2.03217e-016 0 3.88251e-019 6.90264 1.12254 -1.91197 0.00716828 9.09337 -0.147653 1.91866 -13.0672 7.95347 
